<!DOCTYPE svg PUBLIC "-//W3C//DTD SVG 1.1//EN"
    "http://www.w3.org/Graphics/SVG/1.1/DTD/svg11.dtd" >
<svg contentScriptType="text/ecmascript" width="500"
     xmlns:xlink="http://www.w3.org/1999/xlink" zoomAndPan="magnify"
     style="height: 500px;" contentStyleType="text/css" height="500"
     preserveAspectRatio="xMidYMid meet" xmlns="http://www.w3.org/2000/svg"
     version="1.0">
    <style type="text/css" xml:space="preserve">.knime-title { color: black; fill: black; font-size: 24px; }
.knime-label, .knime-axis-label, .knime-tick-label, .knime-label text, text.knime-axis-label, text.knime-tick-label { color: black; fill: black; font-size: 12px; }
.knime-legend-label, text.knime-legend-label { color: black; fill: black; font-size: 12px; font-weight: normal; }
.knime-tooltip-caption, .knime-tooltip-key, .knime-tooltip-value { color: black; fill: black; font-size: 12px; }
.knime-tooltip-key { font-weight: normal; }
.knime-tooltip-caption, .knime-tooltip-value { font-weight: bold; }</style><g transform="translate(70,46)">
        <rect x="-70" fill="rgb(255,255,255)" width="500" y="-46" height="500"
              fill-opacity="1.0"/>
        <rect fill="rgb(230,230,230)" width="410" height="349"
              fill-opacity="1.0"/>
        <g class="x axis knime-x knime-axis" transform="translate(0,349)">
            <g style="opacity: 1;" class="tick major knime-tick"
               transform="translate(0,0)">
                <line y2="-349" class="knime-tick-line" x2="0"
                      stroke="rgb(255,255,255)"/>
                <text x="0" dy=".71em" y="10" style="text-anchor: middle;"
                      class="knime-tick-label">
                    0.0
                </text>
            </g>
            <g style="opacity: 1;" class="tick major knime-tick"
               transform="translate(41,0)">
                <line y2="-349" class="knime-tick-line" x2="0"
                      stroke="rgb(255,255,255)"/>
                <text x="0" dy=".71em" y="10" style="text-anchor: middle;"
                      class="knime-tick-label">
                    0.1
                </text>
            </g>
            <g style="opacity: 1;" class="tick major knime-tick"
               transform="translate(82,0)">
                <line y2="-349" class="knime-tick-line" x2="0"
                      stroke="rgb(255,255,255)"/>
                <text x="0" dy=".71em" y="10" style="text-anchor: middle;"
                      class="knime-tick-label">
                    0.2
                </text>
            </g>
            <g style="opacity: 1;" class="tick major knime-tick"
               transform="translate(123,0)">
                <line y2="-349" class="knime-tick-line" x2="0"
                      stroke="rgb(255,255,255)"/>
                <text x="0" dy=".71em" y="10" style="text-anchor: middle;"
                      class="knime-tick-label">
                    0.3
                </text>
            </g>
            <g style="opacity: 1;" class="tick major knime-tick"
               transform="translate(164,0)">
                <line y2="-349" class="knime-tick-line" x2="0"
                      stroke="rgb(255,255,255)"/>
                <text x="0" dy=".71em" y="10" style="text-anchor: middle;"
                      class="knime-tick-label">
                    0.4
                </text>
            </g>
            <g style="opacity: 1;" class="tick major knime-tick"
               transform="translate(205,0)">
                <line y2="-349" class="knime-tick-line" x2="0"
                      stroke="rgb(255,255,255)"/>
                <text x="0" dy=".71em" y="10" style="text-anchor: middle;"
                      class="knime-tick-label">
                    0.5
                </text>
            </g>
            <g style="opacity: 1;" class="tick major knime-tick"
               transform="translate(246,0)">
                <line y2="-349" class="knime-tick-line" x2="0"
                      stroke="rgb(255,255,255)"/>
                <text x="0" dy=".71em" y="10" style="text-anchor: middle;"
                      class="knime-tick-label">
                    0.6
                </text>
            </g>
            <g style="opacity: 1;" class="tick major knime-tick"
               transform="translate(287,0)">
                <line y2="-349" class="knime-tick-line" x2="0"
                      stroke="rgb(255,255,255)"/>
                <text x="0" dy=".71em" y="10" style="text-anchor: middle;"
                      class="knime-tick-label">
                    0.7
                </text>
            </g>
            <g style="opacity: 1;" class="tick major knime-tick"
               transform="translate(328,0)">
                <line y2="-349" class="knime-tick-line" x2="0"
                      stroke="rgb(255,255,255)"/>
                <text x="0" dy=".71em" y="10" style="text-anchor: middle;"
                      class="knime-tick-label">
                    0.8
                </text>
            </g>
            <g style="opacity: 1;" class="tick major knime-tick"
               transform="translate(369,0)">
                <line y2="-349" class="knime-tick-line" x2="0"
                      stroke="rgb(255,255,255)"/>
                <text x="0" dy=".71em" y="10" style="text-anchor: middle;"
                      class="knime-tick-label">
                    0.9
                </text>
            </g>
            <g style="opacity: 1;" class="tick major knime-tick"
               transform="translate(410,0)">
                <line y2="-349" class="knime-tick-line" x2="0"
                      stroke="rgb(255,255,255)"/>
                <text x="0" dy=".71em" y="10" style="text-anchor: middle;"
                      class="knime-tick-label">
                    1.0
                </text>
            </g>
            <path fill="none" stroke-width="1" d="M0,0V0H410V0" class="domain"
                  stroke="rgb(255,255,255)"/>
        </g>
        <g class="y axis knime-y knime-axis">
            <g style="opacity: 1;" class="tick major knime-tick"
               transform="translate(0,349)">
                <line y2="0" class="knime-tick-line" x2="410"
                      stroke="rgb(255,255,255)"/>
                <text x="-10" dy=".32em" y="0" style="text-anchor: end;"
                      class="knime-tick-label">
                    0.0
                </text>
            </g>
            <g style="opacity: 1;" class="tick major knime-tick"
               transform="translate(0,314.1)">
                <line y2="0" class="knime-tick-line" x2="410"
                      stroke="rgb(255,255,255)"/>
                <text x="-10" dy=".32em" y="0" style="text-anchor: end;"
                      class="knime-tick-label">
                    0.1
                </text>
            </g>
            <g style="opacity: 1;" class="tick major knime-tick"
               transform="translate(0,279.2)">
                <line y2="0" class="knime-tick-line" x2="410"
                      stroke="rgb(255,255,255)"/>
                <text x="-10" dy=".32em" y="0" style="text-anchor: end;"
                      class="knime-tick-label">
                    0.2
                </text>
            </g>
            <g style="opacity: 1;" class="tick major knime-tick"
               transform="translate(0,244.3)">
                <line y2="0" class="knime-tick-line" x2="410"
                      stroke="rgb(255,255,255)"/>
                <text x="-10" dy=".32em" y="0" style="text-anchor: end;"
                      class="knime-tick-label">
                    0.3
                </text>
            </g>
            <g style="opacity: 1;" class="tick major knime-tick"
               transform="translate(0,209.4)">
                <line y2="0" class="knime-tick-line" x2="410"
                      stroke="rgb(255,255,255)"/>
                <text x="-10" dy=".32em" y="0" style="text-anchor: end;"
                      class="knime-tick-label">
                    0.4
                </text>
            </g>
            <g style="opacity: 1;" class="tick major knime-tick"
               transform="translate(0,174.5)">
                <line y2="0" class="knime-tick-line" x2="410"
                      stroke="rgb(255,255,255)"/>
                <text x="-10" dy=".32em" y="0" style="text-anchor: end;"
                      class="knime-tick-label">
                    0.5
                </text>
            </g>
            <g style="opacity: 1;" class="tick major knime-tick"
               transform="translate(0,139.6)">
                <line y2="0" class="knime-tick-line" x2="410"
                      stroke="rgb(255,255,255)"/>
                <text x="-10" dy=".32em" y="0" style="text-anchor: end;"
                      class="knime-tick-label">
                    0.6
                </text>
            </g>
            <g style="opacity: 1;" class="tick major knime-tick"
               transform="translate(0,104.70000000000002)">
                <line y2="0" class="knime-tick-line" x2="410"
                      stroke="rgb(255,255,255)"/>
                <text x="-10" dy=".32em" y="0" style="text-anchor: end;"
                      class="knime-tick-label">
                    0.7
                </text>
            </g>
            <g style="opacity: 1;" class="tick major knime-tick"
               transform="translate(0,69.80000000000001)">
                <line y2="0" class="knime-tick-line" x2="410"
                      stroke="rgb(255,255,255)"/>
                <text x="-10" dy=".32em" y="0" style="text-anchor: end;"
                      class="knime-tick-label">
                    0.8
                </text>
            </g>
            <g style="opacity: 1;" class="tick major knime-tick"
               transform="translate(0,34.89999999999998)">
                <line y2="0" class="knime-tick-line" x2="410"
                      stroke="rgb(255,255,255)"/>
                <text x="-10" dy=".32em" y="0" style="text-anchor: end;"
                      class="knime-tick-label">
                    0.9
                </text>
            </g>
            <g style="opacity: 1;" class="tick major knime-tick"
               transform="translate(0,0)">
                <line y2="0" class="knime-tick-line" x2="410"
                      stroke="rgb(255,255,255)"/>
                <text x="-10" dy=".32em" y="0" style="text-anchor: end;"
                      class="knime-tick-label">
                    1.0
                </text>
            </g>
            <path fill="none" stroke-width="1" d="M0,0H0V349H0" class="domain"
                  stroke="rgb(255,255,255)"/>
        </g>
        <text x="400" id="xtitle" y="394"
              class="x label knime-x knime-axis-label" text-anchor="end">
            False Positive Rate
        </text>
        <text dy=".75em" id="ytitle" y="-55"
              class="y label knime-y knime-axis-label" transform="rotate(-90)"
              text-anchor="end">
            True Positive Rate
        </text>
        <g class="knime-tooltip" transform="translate(271,224)">
            <text x="0" y="0" style="fill: rgb(31, 119, 180);"
                  class="knime-tooltip-key knime-tooltip-value knime-tooltip-color">
                Decision Tree (0.843)
            </text>
            <text x="0" y="25" style="fill: rgb(255, 127, 14);"
                  class="knime-tooltip-key knime-tooltip-value knime-tooltip-color">
                KNN (0.712)
            </text>
            <text x="0" y="50" style="fill: rgb(44, 160, 44);"
                  class="knime-tooltip-key knime-tooltip-value knime-tooltip-color">
                Neural Network (0.916)
            </text>
            <text x="0" y="75" style="fill: rgb(214, 39, 40);"
                  class="knime-tooltip-key knime-tooltip-value knime-tooltip-color">
                Random Forest (0.928)
            </text>
            <text x="0" y="100" style="fill: rgb(148, 103, 189);"
                  class="knime-tooltip-key knime-tooltip-value knime-tooltip-color">
                Naive Bayes (0.92)
            </text>
        </g>
        <path style="stroke: rgb(31, 119, 180); fill: none; stroke-width: 2;"
              class="line"
              d="M0,349L29.862204724409448,295.3731707317073L29.862204724409448,280.05121951219513L29.862204724409448,270.6878048780488L29.862204724409448,260.47317073170734L29.862204724409448,251.96097560975608L29.862204724409448,241.74634146341464L29.862204724409448,228.97804878048782L31.476377952755907,213.6560975609756L33.89763779527559,201.7390243902439L33.89763779527559,187.2682926829268L34.70472440944882,184.71463414634147L34.70472440944882,182.1609756097561L34.70472440944882,173.64878048780488L36.318897637795274,160.0292682926829L36.318897637795274,158.32682926829267L37.125984251968504,152.36829268292684L37.93307086614173,142.15365853658537L38.74015748031496,142.15365853658537L39.547244094488185,137.04634146341465L39.547244094488185,132.79024390243902L39.547244094488185,125.12926829268292L39.547244094488185,115.76585365853657L39.547244094488185,114.91463414634146L39.547244094488185,114.06341463414634L39.547244094488185,112.36097560975608L40.35433070866142,108.1048780487805L40.35433070866142,107.25365853658539L43.58267716535433,99.59268292682927L45.196850393700785,97.89024390243904L46.003937007874015,96.18780487804878L46.811023622047244,95.33658536585367L47.618110236220474,94.48536585365855L47.618110236220474,93.6341463414634L49.232283464566926,92.78292682926832L50.03937007874016,92.78292682926832L53.26771653543307,90.22926829268295L58.11023622047244,85.97317073170734L60.53149606299212,84.27073170731705L73.44488188976378,80.01463414634145L74.25196850393701,80.01463414634145L78.28740157480314,75.75853658536585L79.9015748031496,75.75853658536585L86.35826771653542,68.09756097560972L92.81496062992126,62.99024390243903L93.62204724409449,61.2878048780488L94.42913385826772,57.0317073170732L99.27165354330708,56.180487804878055L104.11417322834646,52.775609756097595L108.14960629921259,47.66829268292685L108.95669291338584,45.96585365853656L110.5708661417323,45.96585365853656L112.18503937007874,45.96585365853656L119.44881889763779,44.26341463414633L121.8700787401575,44.26341463414633L125.90551181102363,42.5609756097561L129.13385826771653,42.5609756097561L132.36220472440945,41.709756097560955L134.78346456692915,40.85853658536587L138.01181102362204,38.304878048780495L144.46850393700788,34.89999999999998L146.0826771653543,31.495121951219517L152.53937007874015,31.495121951219517L155.76771653543307,30.643902439024373L157.38188976377953,30.643902439024373L159.8031496062992,28.941463414634143L162.2244094488189,28.941463414634143L164.64566929133858,28.090243902439L169.48818897637796,27.239024390243912L187.24409448818898,27.239024390243912L192.08661417322836,27.239024390243912L197.73622047244095,26.38780487804877L410,0"/>
        <g class="knime-legend" transform="translate(0,419)">
            <text x="20" class="knime-legend-label">
                Decision Tree
            </text>
            <circle fill="#1f77b4" r="5" cx="5" class="knime-legend-symbol"
                    cy="-5"/>
        </g>
        <path style="stroke: rgb(255, 127, 14); fill: none; stroke-width: 2;"
              class="line"
              d="M0,349L38.74015748031496,260.47317073170734L38.74015748031496,257.91951219512197L105.7283464566929,136.1951219512195L105.7283464566929,134.49268292682927L235.66929133858267,49.37073170731708L237.28346456692913,48.51951219512193L410,0"/>
        <g class="knime-legend" transform="translate(103,419)">
            <text x="20" class="knime-legend-label">
                KNN
            </text>
            <circle fill="#ff7f0e" r="5" cx="5" class="knime-legend-symbol"
                    cy="-5"/>
        </g>
        <path style="stroke: rgb(44, 160, 44); fill: none; stroke-width: 2;"
              class="line"
              d="M0,349L0,348.14878048780486L0,347.29756097560977L0,346.4463414634146L0,345.59512195121954L0,344.7439024390244L0,343.89268292682925L0,343.04146341463417L0,342.190243902439L0,341.3390243902439L0,340.4878048780488L0,339.63658536585365L0,338.78536585365856L0,337.9341463414634L0,337.0829268292683L0,336.2317073170732L0,335.38048780487804L0,334.5292682926829L0,333.6780487804878L0,332.82682926829267L0,331.9756097560976L0,331.12439024390244L0,330.2731707317073L0,329.4219512195122L0,328.57073170731707L0,327.719512195122L0,326.86829268292684L0,326.0170731707317L0,325.1658536585366L0,324.31463414634146L0,323.4634146341463L0,322.61219512195123L0,321.7609756097561L0,320.909756097561L0,320.05853658536586L0,319.2073170731707L0,318.3560975609756L0,317.5048780487805L0,316.65365853658534L0.8070866141732284,316.65365853658534L0.8070866141732284,315.80243902439025L0.8070866141732284,314.9512195121951L0.8070866141732284,314.1L0.8070866141732284,313.2487804878049L0.8070866141732284,312.39756097560974L0.8070866141732284,311.54634146341465L0.8070866141732284,310.6951219512195L0.8070866141732284,309.8439024390244L0.8070866141732284,308.9926829268293L0.8070866141732284,308.14146341463413L0.8070866141732284,307.29024390243904L0.8070866141732284,306.4390243902439L0.8070866141732284,305.58780487804876L0.8070866141732284,304.73658536585367L0.8070866141732284,303.8853658536585L0.8070866141732284,303.0341463414634L0.8070866141732284,302.1829268292683L0.8070866141732284,301.33170731707315L0.8070866141732284,300.48048780487807L0.8070866141732284,299.6292682926829L0.8070866141732284,298.7780487804878L0.8070866141732284,297.9268292682927L0.8070866141732284,297.07560975609755L0.8070866141732284,296.22439024390246L0.8070866141732284,295.3731707317073L0.8070866141732284,294.5219512195122L0.8070866141732284,293.6707317073171L0.8070866141732284,292.81951219512194L0.8070866141732284,291.96829268292686L0.8070866141732284,291.1170731707317L0.8070866141732284,290.26585365853657L1.6141732283464567,290.26585365853657L1.6141732283464567,289.4146341463414L1.6141732283464567,288.56341463414634L1.6141732283464567,287.71219512195125L1.6141732283464567,286.8609756097561L1.6141732283464567,286.00975609756097L1.6141732283464567,285.1585365853658L1.6141732283464567,284.30731707317074L1.6141732283464567,283.4560975609756L1.6141732283464567,282.6048780487805L1.6141732283464567,281.75365853658536L1.6141732283464567,280.9024390243902L1.6141732283464567,280.05121951219513L1.6141732283464567,279.2L1.6141732283464567,278.3487804878049L1.6141732283464567,277.49756097560976L1.6141732283464567,276.6463414634146L1.6141732283464567,275.7951219512195L1.6141732283464567,274.9439024390244L1.6141732283464567,274.0926829268293L1.6141732283464567,273.24146341463415L1.6141732283464567,272.390243902439L1.6141732283464567,271.53902439024387L1.6141732283464567,270.6878048780488L1.6141732283464567,269.83658536585364L1.6141732283464567,268.98536585365855L1.6141732283464567,268.1341463414634L1.6141732283464567,267.28292682926826L1.6141732283464567,266.4317073170732L1.6141732283464567,265.58048780487803L1.6141732283464567,264.72926829268295L1.6141732283464567,263.8780487804878L1.6141732283464567,263.02682926829266L1.6141732283464567,262.1756097560976L1.6141732283464567,261.3243902439024L1.6141732283464567,260.47317073170734L1.6141732283464567,259.6219512195122L1.6141732283464567,258.77073170731705L1.6141732283464567,257.91951219512197L1.6141732283464567,257.0682926829268L1.6141732283464567,256.21707317073174L1.6141732283464567,255.3658536585366L1.6141732283464567,254.51463414634145L1.6141732283464567,253.66341463414633L1.6141732283464567,252.81219512195122L1.6141732283464567,251.96097560975608L1.6141732283464567,251.10975609756096L1.6141732283464567,250.25853658536585L1.6141732283464567,249.40731707317076L1.6141732283464567,248.55609756097562L2.421259842519685,248.55609756097562L2.421259842519685,247.7048780487805L2.421259842519685,246.85365853658539L2.421259842519685,246.00243902439024L2.421259842519685,245.15121951219513L2.421259842519685,244.3L2.421259842519685,243.44878048780487L2.421259842519685,242.59756097560975L2.421259842519685,241.74634146341464L2.421259842519685,240.8951219512195L3.2283464566929134,240.8951219512195L3.2283464566929134,240.0439024390244L3.2283464566929134,239.19268292682926L3.2283464566929134,238.34146341463415L3.2283464566929134,237.49024390243903L3.2283464566929134,236.6390243902439L3.2283464566929134,235.78780487804877L3.2283464566929134,234.93658536585366L3.2283464566929134,234.08536585365852L3.2283464566929134,233.23414634146343L4.035433070866142,233.23414634146343L4.035433070866142,232.38292682926829L4.035433070866142,231.53170731707317L4.035433070866142,230.68048780487806L4.035433070866142,229.8292682926829L4.035433070866142,228.97804878048782L4.035433070866142,228.12682926829268L4.035433070866142,227.27560975609757L4.035433070866142,226.42439024390245L4.035433070866142,225.5731707317073L4.035433070866142,224.72195121951222L4.035433070866142,223.87073170731708L4.035433070866142,223.01951219512196L4.035433070866142,222.16829268292685L4.035433070866142,221.3170731707317L4.035433070866142,220.4658536585366L4.035433070866142,219.61463414634147L4.035433070866142,218.76341463414633L4.035433070866142,217.9121951219512L4.035433070866142,217.0609756097561L4.035433070866142,216.20975609756098L4.035433070866142,215.35853658536584L4.035433070866142,214.50731707317073L4.035433070866142,213.6560975609756L4.84251968503937,213.6560975609756L4.84251968503937,212.8048780487805L4.84251968503937,211.95365853658535L4.84251968503937,211.10243902439024L4.84251968503937,210.25121951219512L4.84251968503937,209.4L4.84251968503937,208.54878048780486L5.649606299212598,208.54878048780486L5.649606299212598,207.69756097560975L5.649606299212598,206.84634146341463L5.649606299212598,205.99512195121952L5.649606299212598,205.1439024390244L5.649606299212598,204.2926829268293L5.649606299212598,203.44146341463414L5.649606299212598,202.59024390243903L5.649606299212598,201.7390243902439L5.649606299212598,200.8878048780488L5.649606299212598,200.03658536585365L5.649606299212598,199.18536585365854L5.649606299212598,198.33414634146342L5.649606299212598,197.48292682926828L5.649606299212598,196.63170731707316L5.649606299212598,195.78048780487805L5.649606299212598,194.92926829268293L5.649606299212598,194.0780487804878L5.649606299212598,193.22682926829268L5.649606299212598,192.37560975609756L5.649606299212598,191.52439024390245L5.649606299212598,190.6731707317073L5.649606299212598,189.8219512195122L5.649606299212598,188.97073170731707L5.649606299212598,188.11951219512196L5.649606299212598,187.2682926829268L5.649606299212598,186.4170731707317L5.649606299212598,185.56585365853658L5.649606299212598,184.71463414634147L5.649606299212598,183.86341463414635L5.649606299212598,183.01219512195124L5.649606299212598,182.1609756097561L5.649606299212598,181.30975609756098L5.649606299212598,180.45853658536586L5.649606299212598,179.60731707317075L5.649606299212598,178.7560975609756L6.456692913385827,178.7560975609756L6.456692913385827,177.9048780487805L6.456692913385827,177.05365853658537L6.456692913385827,176.20243902439026L6.456692913385827,175.35121951219512L7.263779527559055,175.35121951219512L7.263779527559055,174.5L7.263779527559055,173.64878048780488L8.070866141732283,173.64878048780488L8.070866141732283,172.79756097560974L8.070866141732283,171.94634146341463L8.070866141732283,171.0951219512195L8.070866141732283,170.2439024390244L8.070866141732283,169.39268292682925L8.070866141732283,168.54146341463414L8.070866141732283,167.69024390243902L8.070866141732283,166.8390243902439L8.877952755905511,166.8390243902439L8.877952755905511,165.98780487804876L8.877952755905511,165.13658536585365L8.877952755905511,164.28536585365853L8.877952755905511,163.43414634146342L8.877952755905511,162.58292682926827L8.877952755905511,161.73170731707316L8.877952755905511,160.88048780487804L8.877952755905511,160.0292682926829L8.877952755905511,159.17804878048779L8.877952755905511,158.32682926829267L8.877952755905511,157.47560975609755L8.877952755905511,156.6243902439024L8.877952755905511,155.7731707317073L8.877952755905511,154.92195121951218L8.877952755905511,154.07073170731707L8.877952755905511,153.21951219512192L8.877952755905511,152.36829268292684L8.877952755905511,151.51707317073172L8.877952755905511,150.6658536585366L8.877952755905511,149.8146341463415L9.68503937007874,149.8146341463415L9.68503937007874,148.96341463414635L10.492125984251969,148.96341463414635L10.492125984251969,148.11219512195123L10.492125984251969,147.26097560975612L10.492125984251969,146.409756097561L10.492125984251969,145.55853658536586L10.492125984251969,144.70731707317074L10.492125984251969,143.85609756097563L10.492125984251969,143.0048780487805L10.492125984251969,142.15365853658537L10.492125984251969,141.30243902439025L10.492125984251969,140.45121951219514L10.492125984251969,139.6L10.492125984251969,138.74878048780488L10.492125984251969,137.89756097560976L10.492125984251969,137.04634146341465L11.299212598425196,137.04634146341465L12.106299212598426,137.04634146341465L12.106299212598426,136.1951219512195L12.106299212598426,135.3439024390244L12.106299212598426,134.49268292682927L12.106299212598426,133.64146341463416L12.106299212598426,132.79024390243902L12.913385826771654,132.79024390243902L13.720472440944883,132.79024390243902L13.720472440944883,131.9390243902439L14.52755905511811,131.9390243902439L14.52755905511811,131.0878048780488L14.52755905511811,130.23658536585367L14.52755905511811,129.38536585365853L15.33464566929134,129.38536585365853L15.33464566929134,128.5341463414634L15.33464566929134,127.6829268292683L15.33464566929134,126.83170731707315L15.33464566929134,125.98048780487804L15.33464566929134,125.12926829268292L15.33464566929134,124.27804878048781L15.33464566929134,123.42682926829266L15.33464566929134,122.57560975609755L15.33464566929134,121.72439024390243L15.33464566929134,120.87317073170732L15.33464566929134,120.02195121951218L15.33464566929134,119.17073170731706L15.33464566929134,118.31951219512194L15.33464566929134,117.46829268292683L15.33464566929134,116.61707317073169L15.33464566929134,115.76585365853657L15.33464566929134,114.91463414634146L15.33464566929134,114.06341463414634L15.33464566929134,113.2121951219512L15.33464566929134,112.36097560975608L15.33464566929134,111.50975609756097L15.33464566929134,110.65853658536582L16.141732283464567,110.65853658536582L16.141732283464567,109.80731707317071L16.141732283464567,108.95609756097562L16.141732283464567,108.1048780487805L16.141732283464567,107.25365853658539L16.141732283464567,106.40243902439025L16.141732283464567,105.55121951219513L16.948818897637796,105.55121951219513L17.755905511811022,105.55121951219513L17.755905511811022,104.70000000000002L18.562992125984252,104.70000000000002L19.37007874015748,104.70000000000002L19.37007874015748,103.8487804878049L19.37007874015748,102.99756097560976L19.37007874015748,102.14634146341464L20.17716535433071,102.14634146341464L20.17716535433071,101.29512195121953L20.17716535433071,100.44390243902441L20.17716535433071,99.59268292682927L20.17716535433071,98.74146341463415L20.984251968503937,98.74146341463415L20.984251968503937,97.89024390243904L20.984251968503937,97.03902439024392L20.984251968503937,96.18780487804878L20.984251968503937,95.33658536585367L20.984251968503937,94.48536585365855L20.984251968503937,93.6341463414634L20.984251968503937,92.78292682926832L20.984251968503937,91.93170731707318L20.984251968503937,91.08048780487803L20.984251968503937,90.22926829268295L21.791338582677167,90.22926829268295L22.598425196850393,90.22926829268295L22.598425196850393,89.3780487804878L23.405511811023622,89.3780487804878L23.405511811023622,88.52682926829266L23.405511811023622,87.67560975609757L23.405511811023622,86.82439024390243L24.212598425196852,86.82439024390243L24.212598425196852,85.97317073170734L24.212598425196852,85.1219512195122L24.212598425196852,84.27073170731705L24.212598425196852,83.41951219512197L24.212598425196852,82.56829268292682L25.01968503937008,82.56829268292682L25.01968503937008,81.71707317073168L25.01968503937008,80.8658536585366L25.01968503937008,80.01463414634145L25.01968503937008,79.1634146341463L25.01968503937008,78.31219512195122L25.01968503937008,77.46097560975608L25.01968503937008,76.60975609756099L25.01968503937008,75.75853658536585L25.01968503937008,74.9073170731707L25.01968503937008,74.05609756097562L25.01968503937008,73.20487804878047L25.01968503937008,72.35365853658533L25.01968503937008,71.50243902439024L25.826771653543307,71.50243902439024L25.826771653543307,70.6512195121951L26.633858267716533,70.6512195121951L27.440944881889767,70.6512195121951L27.440944881889767,69.80000000000001L27.440944881889767,68.94878048780487L27.440944881889767,68.09756097560972L28.248031496062993,68.09756097560972L29.05511811023622,68.09756097560972L29.862204724409448,68.09756097560972L30.66929133858268,68.09756097560972L30.66929133858268,67.24634146341464L31.476377952755907,67.24634146341464L31.476377952755907,66.3951219512195L31.476377952755907,65.54390243902435L32.28346456692913,65.54390243902435L32.28346456692913,64.69268292682926L33.09055118110236,64.69268292682926L33.09055118110236,63.84146341463418L33.89763779527559,63.84146341463418L33.89763779527559,62.99024390243903L34.70472440944882,62.99024390243903L35.511811023622045,62.99024390243903L36.318897637795274,62.99024390243903L37.125984251968504,62.99024390243903L37.125984251968504,62.13902439024395L37.93307086614173,62.13902439024395L38.74015748031496,62.13902439024395L38.74015748031496,61.2878048780488L39.547244094488185,61.2878048780488L39.547244094488185,60.43658536585366L40.35433070866142,60.43658536585366L41.161417322834644,60.43658536585366L41.161417322834644,59.58536585365857L41.161417322834644,58.73414634146343L41.968503937007874,58.73414634146343L42.775590551181104,58.73414634146343L43.58267716535433,58.73414634146343L44.38976377952756,58.73414634146343L45.196850393700785,58.73414634146343L46.003937007874015,58.73414634146343L46.811023622047244,58.73414634146343L46.811023622047244,57.882926829268285L46.811023622047244,57.0317073170732L47.618110236220474,57.0317073170732L48.425196850393704,57.0317073170732L48.425196850393704,56.180487804878055L49.232283464566926,56.180487804878055L50.03937007874016,56.180487804878055L50.03937007874016,55.32926829268291L50.846456692913385,55.32926829268291L50.846456692913385,54.478048780487825L51.653543307086615,54.478048780487825L52.46062992125984,54.478048780487825L53.26771653543307,54.478048780487825L54.074803149606296,54.478048780487825L54.88188976377953,54.478048780487825L55.68897637795276,54.478048780487825L56.496062992125985,54.478048780487825L57.303149606299215,54.478048780487825L58.11023622047244,54.478048780487825L58.91732283464567,54.478048780487825L59.724409448818896,54.478048780487825L59.724409448818896,53.62682926829268L60.53149606299212,53.62682926829268L61.33858267716536,53.62682926829268L62.145669291338585,53.62682926829268L62.145669291338585,52.775609756097595L62.145669291338585,51.92439024390245L62.952755905511815,51.92439024390245L63.75984251968504,51.92439024390245L63.75984251968504,51.07317073170731L64.56692913385827,51.07317073170731L65.3740157480315,51.07317073170731L66.18110236220473,51.07317073170731L66.98818897637794,51.07317073170731L67.79527559055119,51.07317073170731L67.79527559055119,50.22195121951222L68.60236220472441,50.22195121951222L69.40944881889764,50.22195121951222L70.21653543307086,50.22195121951222L71.02362204724409,50.22195121951222L71.83070866141732,50.22195121951222L72.63779527559055,50.22195121951222L73.44488188976378,50.22195121951222L74.25196850393701,50.22195121951222L75.05905511811024,50.22195121951222L75.86614173228347,50.22195121951222L76.6732283464567,50.22195121951222L77.48031496062993,50.22195121951222L77.48031496062993,49.37073170731708L78.28740157480314,49.37073170731708L78.28740157480314,48.51951219512193L79.09448818897637,48.51951219512193L79.09448818897637,47.66829268292685L79.9015748031496,47.66829268292685L80.70866141732284,47.66829268292685L80.70866141732284,46.8170731707317L81.51574803149606,46.8170731707317L82.32283464566929,46.8170731707317L83.12992125984252,46.8170731707317L83.12992125984252,45.96585365853656L83.93700787401575,45.96585365853656L84.74409448818898,45.96585365853656L85.55118110236221,45.96585365853656L86.35826771653542,45.96585365853656L87.16535433070867,45.96585365853656L87.9724409448819,45.96585365853656L87.9724409448819,45.11463414634147L88.77952755905513,45.11463414634147L88.77952755905513,44.26341463414633L89.58661417322834,44.26341463414633L90.39370078740157,44.26341463414633L91.2007874015748,44.26341463414633L91.2007874015748,43.41219512195124L91.2007874015748,42.5609756097561L91.2007874015748,41.709756097560955L92.00787401574803,41.709756097560955L92.81496062992126,41.709756097560955L92.81496062992126,40.85853658536587L93.62204724409449,40.85853658536587L94.42913385826772,40.85853658536587L95.23622047244095,40.85853658536587L96.04330708661418,40.85853658536587L96.85039370078741,40.85853658536587L97.65748031496062,40.85853658536587L97.65748031496062,40.007317073170725L98.46456692913385,40.007317073170725L99.27165354330708,40.007317073170725L100.07874015748033,40.007317073170725L100.88582677165354,40.007317073170725L101.69291338582677,40.007317073170725L102.5,40.007317073170725L103.30708661417323,40.007317073170725L104.11417322834646,40.007317073170725L104.92125984251967,40.007317073170725L105.7283464566929,40.007317073170725L106.53543307086613,40.007317073170725L107.34251968503936,40.007317073170725L108.14960629921259,40.007317073170725L108.14960629921259,39.15609756097558L108.14960629921259,38.304878048780495L108.14960629921259,37.45365853658535L108.95669291338584,37.45365853658535L109.76377952755907,37.45365853658535L110.5708661417323,37.45365853658535L110.5708661417323,36.602439024390264L111.37795275590553,36.602439024390264L112.18503937007874,36.602439024390264L112.99212598425197,36.602439024390264L113.7992125984252,36.602439024390264L114.60629921259843,36.602439024390264L114.60629921259843,35.75121951219512L115.41338582677166,35.75121951219512L115.41338582677166,34.89999999999998L116.22047244094487,34.89999999999998L117.0275590551181,34.89999999999998L117.83464566929133,34.89999999999998L118.64173228346456,34.89999999999998L119.44881889763779,34.89999999999998L119.44881889763779,34.04878048780489L120.25590551181101,34.04878048780489L121.06299212598424,34.04878048780489L121.8700787401575,34.04878048780489L122.67716535433073,34.04878048780489L123.48425196850394,34.04878048780489L124.29133858267717,34.04878048780489L124.29133858267717,33.19756097560975L125.0984251968504,33.19756097560975L125.90551181102363,33.19756097560975L125.90551181102363,32.3463414634146L126.71259842519686,32.3463414634146L127.51968503937007,32.3463414634146L127.51968503937007,31.495121951219517L127.51968503937007,30.643902439024373L128.32677165354332,30.643902439024373L129.13385826771653,30.643902439024373L129.94094488188975,30.643902439024373L130.748031496063,30.643902439024373L130.748031496063,29.79268292682923L131.5551181102362,29.79268292682923L132.36220472440945,29.79268292682923L133.16929133858267,29.79268292682923L133.16929133858267,28.941463414634143L133.97637795275588,28.941463414634143L134.78346456692915,28.941463414634143L135.59055118110237,28.941463414634143L136.39763779527559,28.941463414634143L137.20472440944883,28.941463414634143L138.01181102362204,28.941463414634143L138.8188976377953,28.941463414634143L139.6259842519685,28.941463414634143L140.43307086614172,28.941463414634143L140.43307086614172,28.090243902439L141.24015748031496,28.090243902439L141.24015748031496,27.239024390243912L142.04724409448818,27.239024390243912L142.85433070866142,27.239024390243912L143.66141732283464,27.239024390243912L143.66141732283464,26.38780487804877L144.46850393700788,26.38780487804877L145.2755905511811,26.38780487804877L146.0826771653543,26.38780487804877L146.88976377952756,26.38780487804877L147.6968503937008,26.38780487804877L148.50393700787401,26.38780487804877L148.50393700787401,25.536585365853625L149.31102362204726,25.536585365853625L150.11811023622047,25.536585365853625L150.92519685039372,25.536585365853625L151.73228346456693,25.536585365853625L152.53937007874015,25.536585365853625L153.3464566929134,25.536585365853625L154.1535433070866,25.536585365853625L154.96062992125985,25.536585365853625L155.76771653543307,25.536585365853625L155.76771653543307,24.68536585365854L156.57480314960628,24.68536585365854L157.38188976377953,24.68536585365854L157.38188976377953,23.834146341463395L157.38188976377953,22.98292682926825L158.18897637795274,22.98292682926825L158.99606299212599,22.98292682926825L159.8031496062992,22.98292682926825L160.61023622047244,22.98292682926825L161.4173228346457,22.98292682926825L162.2244094488189,22.98292682926825L163.03149606299212,22.98292682926825L163.83858267716536,22.98292682926825L164.64566929133858,22.98292682926825L165.45275590551182,22.98292682926825L166.25984251968504,22.98292682926825L167.06692913385828,22.98292682926825L167.8740157480315,22.98292682926825L167.8740157480315,22.131707317073165L168.6811023622047,22.131707317073165L169.48818897637796,22.131707317073165L170.29527559055117,22.131707317073165L170.29527559055117,21.280487804878078L171.10236220472441,21.280487804878078L171.90944881889763,21.280487804878078L172.71653543307085,21.280487804878078L173.52362204724412,21.280487804878078L174.33070866141733,21.280487804878078L175.13779527559055,21.280487804878078L175.9448818897638,21.280487804878078L176.751968503937,21.280487804878078L177.55905511811025,21.280487804878078L178.36614173228347,21.280487804878078L179.17322834645668,21.280487804878078L179.98031496062993,21.280487804878078L180.78740157480314,21.280487804878078L181.59448818897638,21.280487804878078L181.59448818897638,20.429268292682934L182.4015748031496,20.429268292682934L183.20866141732282,20.429268292682934L184.01574803149606,20.429268292682934L184.82283464566927,20.429268292682934L185.62992125984252,20.429268292682934L186.43700787401576,20.429268292682934L187.24409448818898,20.429268292682934L188.05118110236222,20.429268292682934L188.85826771653544,20.429268292682934L189.66535433070865,20.429268292682934L190.4724409448819,20.429268292682934L191.2795275590551,20.429268292682934L192.08661417322836,20.429268292682934L192.89370078740157,20.429268292682934L193.70078740157481,20.429268292682934L193.70078740157481,19.578048780487848L194.50787401574803,19.578048780487848L195.31496062992125,19.578048780487848L196.1220472440945,19.578048780487848L196.9291338582677,19.578048780487848L197.73622047244095,19.578048780487848L198.54330708661416,19.578048780487848L199.3503937007874,19.578048780487848L200.15748031496065,19.578048780487848L200.96456692913387,19.578048780487848L201.77165354330708,19.578048780487848L202.57874015748033,19.578048780487848L203.38582677165354,19.578048780487848L204.19291338582678,19.578048780487848L205,19.578048780487848L205.80708661417322,19.578048780487848L206.61417322834646,19.578048780487848L207.42125984251967,19.578048780487848L208.22834645669292,19.578048780487848L209.03543307086613,19.578048780487848L209.03543307086613,18.726829268292704L209.84251968503935,18.726829268292704L210.6496062992126,18.726829268292704L211.4566929133858,18.726829268292704L212.26377952755905,18.726829268292704L213.07086614173227,18.726829268292704L213.87795275590548,18.726829268292704L214.68503937007873,18.726829268292704L215.49212598425194,18.726829268292704L216.29921259842519,18.726829268292704L217.1062992125984,18.726829268292704L217.1062992125984,17.87560975609756L217.91338582677167,17.87560975609756L218.72047244094492,17.87560975609756L219.52755905511813,17.87560975609756L220.33464566929135,17.87560975609756L221.1417322834646,17.87560975609756L221.9488188976378,17.87560975609756L222.75590551181105,17.87560975609756L223.56299212598427,17.87560975609756L224.37007874015748,17.87560975609756L225.17716535433073,17.87560975609756L225.98425196850394,17.87560975609756L226.79133858267718,17.87560975609756L226.79133858267718,17.024390243902474L226.79133858267718,16.17317073170733L227.5984251968504,16.17317073170733L227.5984251968504,15.321951219512187L228.40551181102362,15.321951219512187L229.21259842519686,15.321951219512187L229.21259842519686,14.4707317073171L230.01968503937007,14.4707317073171L230.01968503937007,13.619512195121956L230.82677165354332,13.619512195121956L231.63385826771653,13.619512195121956L232.44094488188975,13.619512195121956L233.248031496063,13.619512195121956L233.248031496063,12.768292682926813L234.0551181102362,12.768292682926813L234.86220472440945,12.768292682926813L235.66929133858267,12.768292682926813L236.47637795275588,12.768292682926813L237.28346456692913,12.768292682926813L238.09055118110234,12.768292682926813L238.89763779527559,12.768292682926813L239.7047244094488,12.768292682926813L240.51181102362202,12.768292682926813L240.51181102362202,11.917073170731726L241.31889763779526,11.917073170731726L242.12598425196848,11.917073170731726L242.93307086614172,11.917073170731726L243.740157480315,11.917073170731726L243.740157480315,11.065853658536582L244.5472440944882,11.065853658536582L244.5472440944882,10.214634146341496L245.35433070866145,10.214634146341496L246.16141732283467,10.214634146341496L246.96850393700788,10.214634146341496L247.77559055118112,10.214634146341496L248.58267716535434,10.214634146341496L249.38976377952758,10.214634146341496L250.1968503937008,10.214634146341496L251.00393700787401,10.214634146341496L251.81102362204726,10.214634146341496L252.61811023622047,10.214634146341496L253.42519685039372,10.214634146341496L254.23228346456693,10.214634146341496L254.23228346456693,9.363414634146352L255.03937007874015,9.363414634146352L255.8464566929134,9.363414634146352L256.65354330708664,9.363414634146352L257.46062992125985,9.363414634146352L258.26771653543307,9.363414634146352L259.0748031496063,9.363414634146352L259.8818897637795,9.363414634146352L259.8818897637795,8.512195121951208L260.68897637795277,8.512195121951208L261.496062992126,8.512195121951208L262.3031496062992,8.512195121951208L263.1102362204724,8.512195121951208L263.91732283464563,8.512195121951208L264.7244094488189,8.512195121951208L265.5314960629921,8.512195121951208L266.33858267716533,8.512195121951208L267.14566929133855,8.512195121951208L267.95275590551176,8.512195121951208L268.75984251968504,8.512195121951208L269.5669291338583,8.512195121951208L270.3740157480315,8.512195121951208L270.3740157480315,7.660975609756122L271.18110236220474,7.660975609756122L271.98818897637796,7.660975609756122L272.79527559055117,7.660975609756122L273.60236220472444,7.660975609756122L274.40944881889766,7.660975609756122L275.2165354330709,7.660975609756122L276.0236220472441,7.660975609756122L276.8307086614173,7.660975609756122L277.6377952755906,7.660975609756122L278.4448818897638,7.660975609756122L279.251968503937,7.660975609756122L280.0590551181102,7.660975609756122L280.86614173228344,7.660975609756122L281.6732283464567,7.660975609756122L282.4803149606299,7.660975609756122L283.28740157480314,7.660975609756122L283.28740157480314,6.809756097560978L284.09448818897636,6.809756097560978L284.90157480314963,6.809756097560978L285.70866141732284,6.809756097560978L286.51574803149606,6.809756097560978L287.3228346456693,6.809756097560978L288.1299212598425,6.809756097560978L288.93700787401576,6.809756097560978L289.744094488189,6.809756097560978L290.5511811023622,6.809756097560978L291.3582677165354,6.809756097560978L292.1653543307086,6.809756097560978L292.9724409448819,6.809756097560978L293.7795275590551,6.809756097560978L294.5866141732283,6.809756097560978L295.3937007874016,6.809756097560978L296.2007874015748,6.809756097560978L297.00787401574803,6.809756097560978L297.8149606299213,6.809756097560978L297.8149606299213,5.9585365853658345L298.6220472440945,5.9585365853658345L299.42913385826773,5.9585365853658345L300.23622047244095,5.9585365853658345L301.04330708661416,5.9585365853658345L301.85039370078744,5.9585365853658345L302.65748031496065,5.9585365853658345L303.46456692913387,5.9585365853658345L304.2716535433071,5.9585365853658345L305.0787401574803,5.9585365853658345L305.88582677165357,5.9585365853658345L306.6929133858268,5.9585365853658345L307.5,5.9585365853658345L308.3070866141732,5.9585365853658345L309.11417322834643,5.9585365853658345L309.9212598425197,5.9585365853658345L310.7283464566929,5.9585365853658345L311.53543307086613,5.9585365853658345L312.34251968503935,5.9585365853658345L313.14960629921256,5.9585365853658345L313.95669291338584,5.9585365853658345L314.76377952755905,5.9585365853658345L315.57086614173227,5.9585365853658345L316.3779527559055,5.9585365853658345L317.1850393700787,5.9585365853658345L317.99212598425197,5.9585365853658345L318.7992125984252,5.9585365853658345L319.6062992125984,5.9585365853658345L320.4133858267717,5.9585365853658345L320.4133858267717,5.107317073170748L320.4133858267717,4.256097560975604L321.2204724409449,4.256097560975604L322.0275590551181,4.256097560975604L322.8346456692914,4.256097560975604L323.6417322834646,4.256097560975604L324.4488188976378,4.256097560975604L325.255905511811,4.256097560975604L326.06299212598424,4.256097560975604L326.8700787401575,4.256097560975604L326.8700787401575,3.4048780487805175L327.6771653543307,3.4048780487805175L328.48425196850394,3.4048780487805175L329.29133858267716,3.4048780487805175L330.09842519685037,3.4048780487805175L330.90551181102364,3.4048780487805175L331.71259842519686,3.4048780487805175L331.71259842519686,2.553658536585374L332.5196850393701,2.553658536585374L333.3267716535433,2.553658536585374L334.13385826771656,2.553658536585374L334.9409448818898,2.553658536585374L335.748031496063,2.553658536585374L336.5551181102362,2.553658536585374L337.3622047244094,2.553658536585374L338.1692913385827,2.553658536585374L338.9763779527559,2.553658536585374L339.7834645669291,2.553658536585374L340.59055118110234,2.553658536585374L341.39763779527556,2.553658536585374L342.20472440944883,2.553658536585374L343.01181102362204,2.553658536585374L343.81889763779526,2.553658536585374L344.6259842519685,2.553658536585374L345.4330708661417,2.553658536585374L346.24015748031496,2.553658536585374L347.04724409448824,2.553658536585374L347.85433070866145,2.553658536585374L348.66141732283467,2.553658536585374L349.4685039370079,2.553658536585374L350.2755905511811,2.553658536585374L351.08267716535437,2.553658536585374L351.8897637795276,2.553658536585374L352.6968503937008,2.553658536585374L353.503937007874,2.553658536585374L354.31102362204723,2.553658536585374L355.1181102362205,2.553658536585374L355.9251968503937,2.553658536585374L356.73228346456693,2.553658536585374L357.53937007874015,2.553658536585374L358.34645669291336,2.553658536585374L359.15354330708664,2.553658536585374L359.96062992125985,2.553658536585374L360.76771653543307,2.553658536585374L361.5748031496063,2.553658536585374L362.3818897637795,2.553658536585374L363.18897637795277,2.553658536585374L363.996062992126,2.553658536585374L364.8031496062992,2.553658536585374L365.6102362204724,2.553658536585374L366.41732283464563,2.553658536585374L367.2244094488189,2.553658536585374L368.0314960629921,2.553658536585374L368.83858267716533,2.553658536585374L369.64566929133855,2.553658536585374L370.45275590551176,2.553658536585374L371.25984251968504,2.553658536585374L372.0669291338583,2.553658536585374L372.8740157480315,2.553658536585374L373.68110236220474,2.553658536585374L374.48818897637796,2.553658536585374L375.29527559055117,2.553658536585374L376.10236220472444,2.553658536585374L376.90944881889766,2.553658536585374L377.7165354330709,2.553658536585374L378.5236220472441,2.553658536585374L378.5236220472441,1.7024390243902303L379.3307086614173,1.7024390243902303L380.1377952755906,1.7024390243902303L380.9448818897638,1.7024390243902303L381.751968503937,1.7024390243902303L382.5590551181102,1.7024390243902303L383.36614173228344,1.7024390243902303L384.1732283464567,1.7024390243902303L384.9803149606299,1.7024390243902303L385.78740157480314,1.7024390243902303L386.59448818897636,1.7024390243902303L387.40157480314963,1.7024390243902303L388.20866141732284,1.7024390243902303L389.01574803149606,1.7024390243902303L389.8228346456693,1.7024390243902303L390.6299212598425,1.7024390243902303L390.6299212598425,0.8512195121951436L391.43700787401576,0.8512195121951436L392.244094488189,0.8512195121951436L393.0511811023622,0.8512195121951436L393.8582677165354,0.8512195121951436L394.6653543307086,0.8512195121951436L395.4724409448819,0.8512195121951436L396.2795275590551,0.8512195121951436L397.0866141732283,0.8512195121951436L397.8937007874016,0.8512195121951436L398.7007874015748,0.8512195121951436L399.50787401574803,0.8512195121951436L400.3149606299213,0.8512195121951436L401.1220472440945,0.8512195121951436L401.92913385826773,0.8512195121951436L402.73622047244095,0.8512195121951436L403.54330708661416,0.8512195121951436L403.54330708661416,0L404.35039370078744,0L405.15748031496065,0L405.96456692913387,0L406.7716535433071,0L407.5787401574803,0L408.38582677165357,0L409.1929133858268,0L410,0"/>
        <g class="knime-legend" transform="translate(158,419)">
            <text x="20" class="knime-legend-label">
                Neural Network
            </text>
            <circle fill="#2ca02c" r="5" cx="5" class="knime-legend-symbol"
                    cy="-5"/>
        </g>
        <path style="stroke: rgb(214, 39, 40); fill: none; stroke-width: 2;"
              class="line"
              d="M0,349L0.8070866141732284,300.48048780487807L0.8070866141732284,276.6463414634146L0.8070866141732284,256.21707317073174L0.8070866141732284,236.6390243902439L1.6141732283464567,225.5731707317073L1.6141732283464567,217.0609756097561L1.6141732283464567,211.95365853658535L2.421259842519685,206.84634146341463L4.035433070866142,198.33414634146342L4.84251968503937,192.37560975609756L5.649606299212598,186.4170731707317L6.456692913385827,178.7560975609756L7.263779527559055,170.2439024390244L8.070866141732283,165.98780487804876L8.070866141732283,159.17804878048779L8.877952755905511,155.7731707317073L9.68503937007874,151.51707317073172L9.68503937007874,148.11219512195123L10.492125984251969,143.0048780487805L10.492125984251969,139.6L10.492125984251969,135.3439024390244L10.492125984251969,131.9390243902439L12.106299212598426,129.38536585365853L12.106299212598426,123.42682926829266L12.106299212598426,119.17073170731706L12.106299212598426,117.46829268292683L12.106299212598426,114.06341463414634L12.913385826771654,110.65853658536582L12.913385826771654,104.70000000000002L13.720472440944883,100.44390243902441L14.52755905511811,98.74146341463415L14.52755905511811,96.18780487804878L15.33464566929134,93.6341463414634L16.141732283464567,92.78292682926832L16.141732283464567,88.52682926829266L16.948818897637796,85.97317073170734L19.37007874015748,84.27073170731705L22.598425196850393,83.41951219512197L24.212598425196852,80.8658536585366L25.01968503937008,78.31219512195122L29.05511811023622,76.60975609756099L29.862204724409448,74.05609756097562L30.66929133858268,72.35365853658533L31.476377952755907,68.09756097560972L32.28346456692913,66.3951219512195L33.09055118110236,64.69268292682926L33.09055118110236,61.2878048780488L36.318897637795274,60.43658536585366L39.547244094488185,59.58536585365857L41.161417322834644,57.882926829268285L42.775590551181104,56.180487804878055L43.58267716535433,53.62682926829268L45.196850393700785,52.775609756097595L49.232283464566926,50.22195121951222L50.846456692913385,49.37073170731708L51.653543307086615,48.51951219512193L54.074803149606296,48.51951219512193L56.496062992125985,47.66829268292685L58.91732283464567,44.26341463414633L60.53149606299212,42.5609756097561L66.18110236220473,40.85853658536587L67.79527559055119,39.15609756097558L70.21653543307086,39.15609756097558L73.44488188976378,36.602439024390264L78.28740157480314,35.75121951219512L81.51574803149606,34.04878048780489L83.12992125984252,34.04878048780489L88.77952755905513,33.19756097560975L92.00787401574803,31.495121951219517L98.46456692913385,30.643902439024373L103.30708661417323,29.79268292682923L110.5708661417323,28.941463414634143L114.60629921259843,28.090243902439L120.25590551181101,26.38780487804877L124.29133858267717,25.536585365853625L129.94094488188975,24.68536585365854L138.8188976377953,22.98292682926825L146.88976377952756,22.131707317073165L150.92519685039372,22.131707317073165L154.1535433070866,20.429268292682934L158.99606299212599,20.429268292682934L162.2244094488189,19.578048780487848L170.29527559055117,18.726829268292704L175.9448818897638,18.726829268292704L183.20866141732282,17.024390243902474L192.08661417322836,17.024390243902474L200.96456692913387,15.321951219512187L210.6496062992126,12.768292682926813L225.98425196850394,12.768292682926813L238.09055118110234,9.363414634146352L244.5472440944882,7.660975609756122L255.8464566929134,6.809756097560978L269.5669291338583,5.9585365853658345L287.3228346456693,5.9585365853658345L305.88582677165357,5.107317073170748L324.4488188976378,3.4048780487805175L346.24015748031496,2.553658536585374L369.64566929133855,2.553658536585374L394.6653543307086,0.8512195121951436L410,0"/>
        <g class="knime-legend" transform="translate(271,419)">
            <text x="20" class="knime-legend-label">
                Random Forest
            </text>
            <circle fill="#d62728" r="5" cx="5" class="knime-legend-symbol"
                    cy="-5"/>
        </g>
        <path style="stroke: rgb(148, 103, 189); fill: none; stroke-width: 2;"
              class="line"
              d="M0,349L0,348.14878048780486L0,347.29756097560977L0,346.4463414634146L0,345.59512195121954L0,344.7439024390244L0,343.89268292682925L0,343.04146341463417L0,342.190243902439L0,341.3390243902439L0,340.4878048780488L0,339.63658536585365L0,338.78536585365856L0,337.9341463414634L0,337.0829268292683L0,336.2317073170732L0,335.38048780487804L0,334.5292682926829L0,333.6780487804878L0,332.82682926829267L0,331.9756097560976L0,331.12439024390244L0,330.2731707317073L0,329.4219512195122L0,328.57073170731707L0,327.719512195122L0,326.86829268292684L0,326.0170731707317L0,325.1658536585366L0,324.31463414634146L0,323.4634146341463L0,322.61219512195123L0,321.7609756097561L0,320.909756097561L0,320.05853658536586L0,319.2073170731707L0,318.3560975609756L0,317.5048780487805L0,316.65365853658534L0,315.80243902439025L0,314.9512195121951L0,314.1L0,313.2487804878049L0,312.39756097560974L0,311.54634146341465L0,310.6951219512195L0,309.8439024390244L0,308.9926829268293L0,308.14146341463413L0,307.29024390243904L0,306.4390243902439L0,305.58780487804876L0,304.73658536585367L0,303.8853658536585L0,303.0341463414634L0,302.1829268292683L0,301.33170731707315L0,300.48048780487807L0,299.6292682926829L0,298.7780487804878L0,297.9268292682927L0,297.07560975609755L0,296.22439024390246L0,295.3731707317073L0,294.5219512195122L0,293.6707317073171L0,292.81951219512194L0,291.96829268292686L0,291.1170731707317L0,290.26585365853657L0,289.4146341463414L0,288.56341463414634L0,287.71219512195125L0,286.8609756097561L0,286.00975609756097L0,285.1585365853658L0,284.30731707317074L0,283.4560975609756L0,282.6048780487805L0,281.75365853658536L0,280.9024390243902L0,280.05121951219513L0,279.2L0,278.3487804878049L0,277.49756097560976L0,276.6463414634146L0,275.7951219512195L0.8070866141732284,275.7951219512195L0.8070866141732284,274.9439024390244L0.8070866141732284,274.0926829268293L0.8070866141732284,273.24146341463415L0.8070866141732284,272.390243902439L0.8070866141732284,271.53902439024387L0.8070866141732284,270.6878048780488L0.8070866141732284,269.83658536585364L0.8070866141732284,268.98536585365855L0.8070866141732284,268.1341463414634L0.8070866141732284,267.28292682926826L0.8070866141732284,266.4317073170732L0.8070866141732284,265.58048780487803L0.8070866141732284,264.72926829268295L0.8070866141732284,263.8780487804878L0.8070866141732284,263.02682926829266L0.8070866141732284,262.1756097560976L0.8070866141732284,261.3243902439024L0.8070866141732284,260.47317073170734L0.8070866141732284,259.6219512195122L0.8070866141732284,258.77073170731705L0.8070866141732284,257.91951219512197L0.8070866141732284,257.0682926829268L0.8070866141732284,256.21707317073174L0.8070866141732284,255.3658536585366L0.8070866141732284,254.51463414634145L0.8070866141732284,253.66341463414633L0.8070866141732284,252.81219512195122L0.8070866141732284,251.96097560975608L0.8070866141732284,251.10975609756096L0.8070866141732284,250.25853658536585L0.8070866141732284,249.40731707317076L0.8070866141732284,248.55609756097562L0.8070866141732284,247.7048780487805L0.8070866141732284,246.85365853658539L0.8070866141732284,246.00243902439024L0.8070866141732284,245.15121951219513L0.8070866141732284,244.3L0.8070866141732284,243.44878048780487L0.8070866141732284,242.59756097560975L0.8070866141732284,241.74634146341464L0.8070866141732284,240.8951219512195L0.8070866141732284,240.0439024390244L0.8070866141732284,239.19268292682926L0.8070866141732284,238.34146341463415L0.8070866141732284,237.49024390243903L0.8070866141732284,236.6390243902439L0.8070866141732284,235.78780487804877L0.8070866141732284,234.93658536585366L0.8070866141732284,234.08536585365852L1.6141732283464567,234.08536585365852L1.6141732283464567,233.23414634146343L1.6141732283464567,232.38292682926829L1.6141732283464567,231.53170731707317L1.6141732283464567,230.68048780487806L1.6141732283464567,229.8292682926829L2.421259842519685,229.8292682926829L2.421259842519685,228.97804878048782L3.2283464566929134,228.97804878048782L3.2283464566929134,228.12682926829268L3.2283464566929134,227.27560975609757L3.2283464566929134,226.42439024390245L3.2283464566929134,225.5731707317073L3.2283464566929134,224.72195121951222L3.2283464566929134,223.87073170731708L3.2283464566929134,223.01951219512196L4.035433070866142,223.01951219512196L4.035433070866142,222.16829268292685L4.035433070866142,221.3170731707317L4.035433070866142,220.4658536585366L4.035433070866142,219.61463414634147L4.035433070866142,218.76341463414633L4.035433070866142,217.9121951219512L4.035433070866142,217.0609756097561L4.035433070866142,216.20975609756098L4.035433070866142,215.35853658536584L4.035433070866142,214.50731707317073L4.035433070866142,213.6560975609756L4.035433070866142,212.8048780487805L4.035433070866142,211.95365853658535L4.035433070866142,211.10243902439024L4.035433070866142,210.25121951219512L4.035433070866142,209.4L4.035433070866142,208.54878048780486L4.035433070866142,207.69756097560975L4.035433070866142,206.84634146341463L4.035433070866142,205.99512195121952L4.035433070866142,205.1439024390244L4.035433070866142,204.2926829268293L4.035433070866142,203.44146341463414L4.035433070866142,202.59024390243903L4.035433070866142,201.7390243902439L4.035433070866142,200.8878048780488L4.035433070866142,200.03658536585365L4.84251968503937,200.03658536585365L4.84251968503937,199.18536585365854L4.84251968503937,198.33414634146342L4.84251968503937,197.48292682926828L4.84251968503937,196.63170731707316L5.649606299212598,196.63170731707316L5.649606299212598,195.78048780487805L5.649606299212598,194.92926829268293L5.649606299212598,194.0780487804878L5.649606299212598,193.22682926829268L5.649606299212598,192.37560975609756L5.649606299212598,191.52439024390245L6.456692913385827,191.52439024390245L6.456692913385827,190.6731707317073L6.456692913385827,189.8219512195122L6.456692913385827,188.97073170731707L6.456692913385827,188.11951219512196L6.456692913385827,187.2682926829268L6.456692913385827,186.4170731707317L7.263779527559055,186.4170731707317L7.263779527559055,185.56585365853658L7.263779527559055,184.71463414634147L7.263779527559055,183.86341463414635L7.263779527559055,183.01219512195124L7.263779527559055,182.1609756097561L7.263779527559055,181.30975609756098L7.263779527559055,180.45853658536586L7.263779527559055,179.60731707317075L8.070866141732283,179.60731707317075L8.877952755905511,179.60731707317075L8.877952755905511,178.7560975609756L8.877952755905511,177.9048780487805L8.877952755905511,177.05365853658537L8.877952755905511,176.20243902439026L8.877952755905511,175.35121951219512L9.68503937007874,175.35121951219512L10.492125984251969,175.35121951219512L10.492125984251969,174.5L11.299212598425196,174.5L11.299212598425196,173.64878048780488L11.299212598425196,172.79756097560974L11.299212598425196,171.94634146341463L11.299212598425196,171.0951219512195L11.299212598425196,170.2439024390244L11.299212598425196,169.39268292682925L11.299212598425196,168.54146341463414L12.106299212598426,168.54146341463414L12.913385826771654,168.54146341463414L12.913385826771654,167.69024390243902L12.913385826771654,166.8390243902439L13.720472440944883,166.8390243902439L13.720472440944883,165.98780487804876L13.720472440944883,165.13658536585365L13.720472440944883,164.28536585365853L14.52755905511811,164.28536585365853L15.33464566929134,164.28536585365853L15.33464566929134,163.43414634146342L16.141732283464567,163.43414634146342L16.141732283464567,162.58292682926827L16.948818897637796,162.58292682926827L16.948818897637796,161.73170731707316L16.948818897637796,160.88048780487804L16.948818897637796,160.0292682926829L16.948818897637796,159.17804878048779L16.948818897637796,158.32682926829267L16.948818897637796,157.47560975609755L16.948818897637796,156.6243902439024L16.948818897637796,155.7731707317073L16.948818897637796,154.92195121951218L16.948818897637796,154.07073170731707L16.948818897637796,153.21951219512192L16.948818897637796,152.36829268292684L16.948818897637796,151.51707317073172L16.948818897637796,150.6658536585366L16.948818897637796,149.8146341463415L16.948818897637796,148.96341463414635L16.948818897637796,148.11219512195123L16.948818897637796,147.26097560975612L16.948818897637796,146.409756097561L17.755905511811022,146.409756097561L17.755905511811022,145.55853658536586L17.755905511811022,144.70731707317074L17.755905511811022,143.85609756097563L17.755905511811022,143.0048780487805L17.755905511811022,142.15365853658537L18.562992125984252,142.15365853658537L18.562992125984252,141.30243902439025L18.562992125984252,140.45121951219514L18.562992125984252,139.6L18.562992125984252,138.74878048780488L18.562992125984252,137.89756097560976L18.562992125984252,137.04634146341465L18.562992125984252,136.1951219512195L18.562992125984252,135.3439024390244L18.562992125984252,134.49268292682927L18.562992125984252,133.64146341463416L18.562992125984252,132.79024390243902L18.562992125984252,131.9390243902439L18.562992125984252,131.0878048780488L18.562992125984252,130.23658536585367L19.37007874015748,130.23658536585367L19.37007874015748,129.38536585365853L19.37007874015748,128.5341463414634L19.37007874015748,127.6829268292683L19.37007874015748,126.83170731707315L19.37007874015748,125.98048780487804L20.17716535433071,125.98048780487804L20.17716535433071,125.12926829268292L20.17716535433071,124.27804878048781L20.984251968503937,124.27804878048781L20.984251968503937,123.42682926829266L20.984251968503937,122.57560975609755L20.984251968503937,121.72439024390243L20.984251968503937,120.87317073170732L21.791338582677167,120.87317073170732L22.598425196850393,120.87317073170732L23.405511811023622,120.87317073170732L23.405511811023622,120.02195121951218L24.212598425196852,120.02195121951218L24.212598425196852,119.17073170731706L24.212598425196852,118.31951219512194L24.212598425196852,117.46829268292683L24.212598425196852,116.61707317073169L25.01968503937008,116.61707317073169L25.01968503937008,115.76585365853657L25.826771653543307,115.76585365853657L25.826771653543307,114.91463414634146L25.826771653543307,114.06341463414634L26.633858267716533,114.06341463414634L26.633858267716533,113.2121951219512L26.633858267716533,112.36097560975608L26.633858267716533,111.50975609756097L26.633858267716533,110.65853658536582L26.633858267716533,109.80731707317071L26.633858267716533,108.95609756097562L26.633858267716533,108.1048780487805L26.633858267716533,107.25365853658539L27.440944881889767,107.25365853658539L27.440944881889767,106.40243902439025L27.440944881889767,105.55121951219513L27.440944881889767,104.70000000000002L27.440944881889767,103.8487804878049L28.248031496062993,103.8487804878049L28.248031496062993,102.99756097560976L28.248031496062993,102.14634146341464L28.248031496062993,101.29512195121953L28.248031496062993,100.44390243902441L28.248031496062993,99.59268292682927L28.248031496062993,98.74146341463415L28.248031496062993,97.89024390243904L28.248031496062993,97.03902439024392L29.05511811023622,97.03902439024392L29.05511811023622,96.18780487804878L29.05511811023622,95.33658536585367L29.05511811023622,94.48536585365855L29.05511811023622,93.6341463414634L29.05511811023622,92.78292682926832L29.862204724409448,92.78292682926832L30.66929133858268,92.78292682926832L31.476377952755907,92.78292682926832L31.476377952755907,91.93170731707318L31.476377952755907,91.08048780487803L32.28346456692913,91.08048780487803L32.28346456692913,90.22926829268295L33.09055118110236,90.22926829268295L33.09055118110236,89.3780487804878L33.89763779527559,89.3780487804878L33.89763779527559,88.52682926829266L33.89763779527559,87.67560975609757L34.70472440944882,87.67560975609757L34.70472440944882,86.82439024390243L35.511811023622045,86.82439024390243L35.511811023622045,85.97317073170734L36.318897637795274,85.97317073170734L36.318897637795274,85.1219512195122L36.318897637795274,84.27073170731705L36.318897637795274,83.41951219512197L37.125984251968504,83.41951219512197L37.125984251968504,82.56829268292682L37.125984251968504,81.71707317073168L37.125984251968504,80.8658536585366L37.125984251968504,80.01463414634145L37.125984251968504,79.1634146341463L37.125984251968504,78.31219512195122L37.93307086614173,78.31219512195122L38.74015748031496,78.31219512195122L39.547244094488185,78.31219512195122L39.547244094488185,77.46097560975608L39.547244094488185,76.60975609756099L39.547244094488185,75.75853658536585L40.35433070866142,75.75853658536585L41.161417322834644,75.75853658536585L41.161417322834644,74.9073170731707L41.161417322834644,74.05609756097562L41.161417322834644,73.20487804878047L41.968503937007874,73.20487804878047L42.775590551181104,73.20487804878047L42.775590551181104,72.35365853658533L43.58267716535433,72.35365853658533L43.58267716535433,71.50243902439024L43.58267716535433,70.6512195121951L44.38976377952756,70.6512195121951L45.196850393700785,70.6512195121951L46.003937007874015,70.6512195121951L46.003937007874015,69.80000000000001L46.811023622047244,69.80000000000001L46.811023622047244,68.94878048780487L46.811023622047244,68.09756097560972L47.618110236220474,68.09756097560972L47.618110236220474,67.24634146341464L47.618110236220474,66.3951219512195L48.425196850393704,66.3951219512195L48.425196850393704,65.54390243902435L48.425196850393704,64.69268292682926L48.425196850393704,63.84146341463418L49.232283464566926,63.84146341463418L50.03937007874016,63.84146341463418L50.846456692913385,63.84146341463418L50.846456692913385,62.99024390243903L50.846456692913385,62.13902439024395L51.653543307086615,62.13902439024395L52.46062992125984,62.13902439024395L52.46062992125984,61.2878048780488L52.46062992125984,60.43658536585366L52.46062992125984,59.58536585365857L52.46062992125984,58.73414634146343L53.26771653543307,58.73414634146343L54.074803149606296,58.73414634146343L54.88188976377953,58.73414634146343L54.88188976377953,57.882926829268285L54.88188976377953,57.0317073170732L55.68897637795276,57.0317073170732L55.68897637795276,56.180487804878055L55.68897637795276,55.32926829268291L55.68897637795276,54.478048780487825L55.68897637795276,53.62682926829268L56.496062992125985,53.62682926829268L57.303149606299215,53.62682926829268L57.303149606299215,52.775609756097595L58.11023622047244,52.775609756097595L58.11023622047244,51.92439024390245L58.11023622047244,51.07317073170731L58.91732283464567,51.07317073170731L58.91732283464567,50.22195121951222L58.91732283464567,49.37073170731708L58.91732283464567,48.51951219512193L59.724409448818896,48.51951219512193L60.53149606299212,48.51951219512193L61.33858267716536,48.51951219512193L61.33858267716536,47.66829268292685L61.33858267716536,46.8170731707317L61.33858267716536,45.96585365853656L61.33858267716536,45.11463414634147L62.145669291338585,45.11463414634147L62.952755905511815,45.11463414634147L63.75984251968504,45.11463414634147L63.75984251968504,44.26341463414633L63.75984251968504,43.41219512195124L64.56692913385827,43.41219512195124L65.3740157480315,43.41219512195124L66.18110236220473,43.41219512195124L66.18110236220473,42.5609756097561L66.98818897637794,42.5609756097561L67.79527559055119,42.5609756097561L67.79527559055119,41.709756097560955L68.60236220472441,41.709756097560955L68.60236220472441,40.85853658536587L68.60236220472441,40.007317073170725L69.40944881889764,40.007317073170725L70.21653543307086,40.007317073170725L71.02362204724409,40.007317073170725L71.83070866141732,40.007317073170725L72.63779527559055,40.007317073170725L72.63779527559055,39.15609756097558L73.44488188976378,39.15609756097558L74.25196850393701,39.15609756097558L74.25196850393701,38.304878048780495L75.05905511811024,38.304878048780495L75.86614173228347,38.304878048780495L76.6732283464567,38.304878048780495L76.6732283464567,37.45365853658535L77.48031496062993,37.45365853658535L78.28740157480314,37.45365853658535L79.09448818897637,37.45365853658535L79.9015748031496,37.45365853658535L79.9015748031496,36.602439024390264L80.70866141732284,36.602439024390264L81.51574803149606,36.602439024390264L81.51574803149606,35.75121951219512L82.32283464566929,35.75121951219512L83.12992125984252,35.75121951219512L83.93700787401575,35.75121951219512L84.74409448818898,35.75121951219512L84.74409448818898,34.89999999999998L84.74409448818898,34.04878048780489L85.55118110236221,34.04878048780489L86.35826771653542,34.04878048780489L87.16535433070867,34.04878048780489L87.9724409448819,34.04878048780489L88.77952755905513,34.04878048780489L89.58661417322834,34.04878048780489L90.39370078740157,34.04878048780489L91.2007874015748,34.04878048780489L91.2007874015748,33.19756097560975L92.00787401574803,33.19756097560975L92.81496062992126,33.19756097560975L93.62204724409449,33.19756097560975L94.42913385826772,33.19756097560975L94.42913385826772,32.3463414634146L95.23622047244095,32.3463414634146L96.04330708661418,32.3463414634146L96.04330708661418,31.495121951219517L96.85039370078741,31.495121951219517L96.85039370078741,30.643902439024373L97.65748031496062,30.643902439024373L98.46456692913385,30.643902439024373L99.27165354330708,30.643902439024373L99.27165354330708,29.79268292682923L99.27165354330708,28.941463414634143L100.07874015748033,28.941463414634143L100.88582677165354,28.941463414634143L101.69291338582677,28.941463414634143L102.5,28.941463414634143L103.30708661417323,28.941463414634143L103.30708661417323,28.090243902439L104.11417322834646,28.090243902439L104.92125984251967,28.090243902439L104.92125984251967,27.239024390243912L104.92125984251967,26.38780487804877L105.7283464566929,26.38780487804877L106.53543307086613,26.38780487804877L107.34251968503936,26.38780487804877L108.14960629921259,26.38780487804877L108.95669291338584,26.38780487804877L109.76377952755907,26.38780487804877L110.5708661417323,26.38780487804877L110.5708661417323,25.536585365853625L111.37795275590553,25.536585365853625L112.18503937007874,25.536585365853625L112.99212598425197,25.536585365853625L113.7992125984252,25.536585365853625L114.60629921259843,25.536585365853625L114.60629921259843,24.68536585365854L115.41338582677166,24.68536585365854L116.22047244094487,24.68536585365854L117.0275590551181,24.68536585365854L117.83464566929133,24.68536585365854L118.64173228346456,24.68536585365854L119.44881889763779,24.68536585365854L120.25590551181101,24.68536585365854L121.06299212598424,24.68536585365854L121.8700787401575,24.68536585365854L122.67716535433073,24.68536585365854L123.48425196850394,24.68536585365854L124.29133858267717,24.68536585365854L125.0984251968504,24.68536585365854L125.90551181102363,24.68536585365854L125.90551181102363,23.834146341463395L126.71259842519686,23.834146341463395L127.51968503937007,23.834146341463395L128.32677165354332,23.834146341463395L129.13385826771653,23.834146341463395L129.94094488188975,23.834146341463395L130.748031496063,23.834146341463395L131.5551181102362,23.834146341463395L132.36220472440945,23.834146341463395L132.36220472440945,22.98292682926825L133.16929133858267,22.98292682926825L133.97637795275588,22.98292682926825L133.97637795275588,22.131707317073165L134.78346456692915,22.131707317073165L135.59055118110237,22.131707317073165L136.39763779527559,22.131707317073165L137.20472440944883,22.131707317073165L138.01181102362204,22.131707317073165L138.8188976377953,22.131707317073165L139.6259842519685,22.131707317073165L140.43307086614172,22.131707317073165L141.24015748031496,22.131707317073165L142.04724409448818,22.131707317073165L142.85433070866142,22.131707317073165L143.66141732283464,22.131707317073165L143.66141732283464,21.280487804878078L144.46850393700788,21.280487804878078L145.2755905511811,21.280487804878078L146.0826771653543,21.280487804878078L146.0826771653543,20.429268292682934L146.88976377952756,20.429268292682934L147.6968503937008,20.429268292682934L148.50393700787401,20.429268292682934L149.31102362204726,20.429268292682934L150.11811023622047,20.429268292682934L150.92519685039372,20.429268292682934L151.73228346456693,20.429268292682934L152.53937007874015,20.429268292682934L153.3464566929134,20.429268292682934L154.1535433070866,20.429268292682934L154.1535433070866,19.578048780487848L154.96062992125985,19.578048780487848L155.76771653543307,19.578048780487848L155.76771653543307,18.726829268292704L155.76771653543307,17.87560975609756L156.57480314960628,17.87560975609756L157.38188976377953,17.87560975609756L158.18897637795274,17.87560975609756L158.99606299212599,17.87560975609756L159.8031496062992,17.87560975609756L160.61023622047244,17.87560975609756L161.4173228346457,17.87560975609756L162.2244094488189,17.87560975609756L163.03149606299212,17.87560975609756L163.83858267716536,17.87560975609756L164.64566929133858,17.87560975609756L165.45275590551182,17.87560975609756L166.25984251968504,17.87560975609756L167.06692913385828,17.87560975609756L167.8740157480315,17.87560975609756L168.6811023622047,17.87560975609756L169.48818897637796,17.87560975609756L170.29527559055117,17.87560975609756L171.10236220472441,17.87560975609756L171.90944881889763,17.87560975609756L171.90944881889763,17.024390243902474L172.71653543307085,17.024390243902474L173.52362204724412,17.024390243902474L174.33070866141733,17.024390243902474L175.13779527559055,17.024390243902474L175.9448818897638,17.024390243902474L175.9448818897638,16.17317073170733L176.751968503937,16.17317073170733L177.55905511811025,16.17317073170733L178.36614173228347,16.17317073170733L179.17322834645668,16.17317073170733L179.17322834645668,15.321951219512187L179.17322834645668,14.4707317073171L179.98031496062993,14.4707317073171L180.78740157480314,14.4707317073171L181.59448818897638,14.4707317073171L182.4015748031496,14.4707317073171L183.20866141732282,14.4707317073171L184.01574803149606,14.4707317073171L184.82283464566927,14.4707317073171L185.62992125984252,14.4707317073171L186.43700787401576,14.4707317073171L187.24409448818898,14.4707317073171L188.05118110236222,14.4707317073171L188.85826771653544,14.4707317073171L189.66535433070865,14.4707317073171L190.4724409448819,14.4707317073171L191.2795275590551,14.4707317073171L192.08661417322836,14.4707317073171L192.89370078740157,14.4707317073171L193.70078740157481,14.4707317073171L194.50787401574803,14.4707317073171L195.31496062992125,14.4707317073171L196.1220472440945,14.4707317073171L196.9291338582677,14.4707317073171L197.73622047244095,14.4707317073171L198.54330708661416,14.4707317073171L199.3503937007874,14.4707317073171L200.15748031496065,14.4707317073171L200.96456692913387,14.4707317073171L201.77165354330708,14.4707317073171L202.57874015748033,14.4707317073171L202.57874015748033,13.619512195121956L203.38582677165354,13.619512195121956L204.19291338582678,13.619512195121956L205,13.619512195121956L205,12.768292682926813L205.80708661417322,12.768292682926813L206.61417322834646,12.768292682926813L207.42125984251967,12.768292682926813L208.22834645669292,12.768292682926813L209.03543307086613,12.768292682926813L209.84251968503935,12.768292682926813L210.6496062992126,12.768292682926813L211.4566929133858,12.768292682926813L212.26377952755905,12.768292682926813L213.07086614173227,12.768292682926813L213.87795275590548,12.768292682926813L214.68503937007873,12.768292682926813L215.49212598425194,12.768292682926813L216.29921259842519,12.768292682926813L217.1062992125984,12.768292682926813L217.1062992125984,11.917073170731726L217.1062992125984,11.065853658536582L217.91338582677167,11.065853658536582L217.91338582677167,10.214634146341496L218.72047244094492,10.214634146341496L219.52755905511813,10.214634146341496L220.33464566929135,10.214634146341496L221.1417322834646,10.214634146341496L221.9488188976378,10.214634146341496L222.75590551181105,10.214634146341496L223.56299212598427,10.214634146341496L224.37007874015748,10.214634146341496L224.37007874015748,9.363414634146352L225.17716535433073,9.363414634146352L225.98425196850394,9.363414634146352L226.79133858267718,9.363414634146352L227.5984251968504,9.363414634146352L227.5984251968504,8.512195121951208L228.40551181102362,8.512195121951208L229.21259842519686,8.512195121951208L230.01968503937007,8.512195121951208L230.82677165354332,8.512195121951208L231.63385826771653,8.512195121951208L232.44094488188975,8.512195121951208L233.248031496063,8.512195121951208L234.0551181102362,8.512195121951208L234.86220472440945,8.512195121951208L235.66929133858267,8.512195121951208L236.47637795275588,8.512195121951208L237.28346456692913,8.512195121951208L238.09055118110234,8.512195121951208L238.89763779527559,8.512195121951208L239.7047244094488,8.512195121951208L239.7047244094488,7.660975609756122L240.51181102362202,7.660975609756122L241.31889763779526,7.660975609756122L242.12598425196848,7.660975609756122L242.93307086614172,7.660975609756122L243.740157480315,7.660975609756122L244.5472440944882,7.660975609756122L245.35433070866145,7.660975609756122L246.16141732283467,7.660975609756122L246.96850393700788,7.660975609756122L247.77559055118112,7.660975609756122L248.58267716535434,7.660975609756122L249.38976377952758,7.660975609756122L250.1968503937008,7.660975609756122L250.1968503937008,6.809756097560978L251.00393700787401,6.809756097560978L251.81102362204726,6.809756097560978L252.61811023622047,6.809756097560978L253.42519685039372,6.809756097560978L254.23228346456693,6.809756097560978L255.03937007874015,6.809756097560978L255.8464566929134,6.809756097560978L256.65354330708664,6.809756097560978L257.46062992125985,6.809756097560978L258.26771653543307,6.809756097560978L259.0748031496063,6.809756097560978L259.8818897637795,6.809756097560978L260.68897637795277,6.809756097560978L261.496062992126,6.809756097560978L262.3031496062992,6.809756097560978L263.1102362204724,6.809756097560978L263.91732283464563,6.809756097560978L264.7244094488189,6.809756097560978L265.5314960629921,6.809756097560978L266.33858267716533,6.809756097560978L267.14566929133855,6.809756097560978L267.95275590551176,6.809756097560978L268.75984251968504,6.809756097560978L269.5669291338583,6.809756097560978L270.3740157480315,6.809756097560978L271.18110236220474,6.809756097560978L271.98818897637796,6.809756097560978L272.79527559055117,6.809756097560978L273.60236220472444,6.809756097560978L274.40944881889766,6.809756097560978L275.2165354330709,6.809756097560978L276.0236220472441,6.809756097560978L276.8307086614173,6.809756097560978L277.6377952755906,6.809756097560978L278.4448818897638,6.809756097560978L279.251968503937,6.809756097560978L280.0590551181102,6.809756097560978L280.86614173228344,6.809756097560978L281.6732283464567,6.809756097560978L282.4803149606299,6.809756097560978L283.28740157480314,6.809756097560978L284.09448818897636,6.809756097560978L284.90157480314963,6.809756097560978L285.70866141732284,6.809756097560978L286.51574803149606,6.809756097560978L287.3228346456693,6.809756097560978L287.3228346456693,5.9585365853658345L288.1299212598425,5.9585365853658345L288.93700787401576,5.9585365853658345L289.744094488189,5.9585365853658345L290.5511811023622,5.9585365853658345L291.3582677165354,5.9585365853658345L292.1653543307086,5.9585365853658345L292.9724409448819,5.9585365853658345L293.7795275590551,5.9585365853658345L294.5866141732283,5.9585365853658345L295.3937007874016,5.9585365853658345L296.2007874015748,5.9585365853658345L297.00787401574803,5.9585365853658345L297.8149606299213,5.9585365853658345L298.6220472440945,5.9585365853658345L298.6220472440945,5.107317073170748L298.6220472440945,4.256097560975604L299.42913385826773,4.256097560975604L300.23622047244095,4.256097560975604L301.04330708661416,4.256097560975604L301.85039370078744,4.256097560975604L302.65748031496065,4.256097560975604L302.65748031496065,3.4048780487805175L303.46456692913387,3.4048780487805175L304.2716535433071,3.4048780487805175L305.0787401574803,3.4048780487805175L305.88582677165357,3.4048780487805175L306.6929133858268,3.4048780487805175L307.5,3.4048780487805175L308.3070866141732,3.4048780487805175L309.11417322834643,3.4048780487805175L309.9212598425197,3.4048780487805175L310.7283464566929,3.4048780487805175L311.53543307086613,3.4048780487805175L312.34251968503935,3.4048780487805175L313.14960629921256,3.4048780487805175L313.95669291338584,3.4048780487805175L314.76377952755905,3.4048780487805175L315.57086614173227,3.4048780487805175L316.3779527559055,3.4048780487805175L317.1850393700787,3.4048780487805175L317.99212598425197,3.4048780487805175L318.7992125984252,3.4048780487805175L319.6062992125984,3.4048780487805175L320.4133858267717,3.4048780487805175L321.2204724409449,3.4048780487805175L322.0275590551181,3.4048780487805175L322.8346456692914,3.4048780487805175L323.6417322834646,3.4048780487805175L324.4488188976378,3.4048780487805175L325.255905511811,3.4048780487805175L326.06299212598424,3.4048780487805175L326.8700787401575,3.4048780487805175L326.8700787401575,2.553658536585374L327.6771653543307,2.553658536585374L328.48425196850394,2.553658536585374L329.29133858267716,2.553658536585374L330.09842519685037,2.553658536585374L330.90551181102364,2.553658536585374L331.71259842519686,2.553658536585374L332.5196850393701,2.553658536585374L333.3267716535433,2.553658536585374L334.13385826771656,2.553658536585374L334.9409448818898,2.553658536585374L335.748031496063,2.553658536585374L336.5551181102362,2.553658536585374L337.3622047244094,2.553658536585374L338.1692913385827,2.553658536585374L338.9763779527559,2.553658536585374L339.7834645669291,2.553658536585374L340.59055118110234,2.553658536585374L341.39763779527556,2.553658536585374L342.20472440944883,2.553658536585374L343.01181102362204,2.553658536585374L343.81889763779526,2.553658536585374L344.6259842519685,2.553658536585374L345.4330708661417,2.553658536585374L346.24015748031496,2.553658536585374L347.04724409448824,2.553658536585374L347.85433070866145,2.553658536585374L348.66141732283467,2.553658536585374L349.4685039370079,2.553658536585374L350.2755905511811,2.553658536585374L351.08267716535437,2.553658536585374L351.8897637795276,2.553658536585374L352.6968503937008,2.553658536585374L353.503937007874,2.553658536585374L354.31102362204723,2.553658536585374L355.1181102362205,2.553658536585374L355.9251968503937,2.553658536585374L356.73228346456693,2.553658536585374L357.53937007874015,2.553658536585374L358.34645669291336,2.553658536585374L359.15354330708664,2.553658536585374L359.96062992125985,2.553658536585374L360.76771653543307,2.553658536585374L361.5748031496063,2.553658536585374L362.3818897637795,2.553658536585374L363.18897637795277,2.553658536585374L363.996062992126,2.553658536585374L364.8031496062992,2.553658536585374L365.6102362204724,2.553658536585374L366.41732283464563,2.553658536585374L367.2244094488189,2.553658536585374L368.0314960629921,2.553658536585374L368.0314960629921,1.7024390243902303L368.83858267716533,1.7024390243902303L369.64566929133855,1.7024390243902303L370.45275590551176,1.7024390243902303L371.25984251968504,1.7024390243902303L372.0669291338583,1.7024390243902303L372.8740157480315,1.7024390243902303L373.68110236220474,1.7024390243902303L374.48818897637796,1.7024390243902303L375.29527559055117,1.7024390243902303L376.10236220472444,1.7024390243902303L376.90944881889766,1.7024390243902303L377.7165354330709,1.7024390243902303L378.5236220472441,1.7024390243902303L379.3307086614173,1.7024390243902303L380.1377952755906,1.7024390243902303L380.9448818897638,1.7024390243902303L381.751968503937,1.7024390243902303L382.5590551181102,1.7024390243902303L383.36614173228344,1.7024390243902303L384.1732283464567,1.7024390243902303L384.9803149606299,1.7024390243902303L385.78740157480314,1.7024390243902303L385.78740157480314,0.8512195121951436L386.59448818897636,0.8512195121951436L387.40157480314963,0.8512195121951436L388.20866141732284,0.8512195121951436L389.01574803149606,0.8512195121951436L389.8228346456693,0.8512195121951436L390.6299212598425,0.8512195121951436L391.43700787401576,0.8512195121951436L392.244094488189,0.8512195121951436L392.244094488189,0L393.0511811023622,0L393.8582677165354,0L394.6653543307086,0L395.4724409448819,0L396.2795275590551,0L397.0866141732283,0L397.8937007874016,0L398.7007874015748,0L399.50787401574803,0L400.3149606299213,0L401.1220472440945,0L401.92913385826773,0L402.73622047244095,0L403.54330708661416,0L404.35039370078744,0L405.15748031496065,0L405.96456692913387,0L406.7716535433071,0L407.5787401574803,0L408.38582677165357,0L409.1929133858268,0L410,0"/>
        <g class="knime-legend" transform="translate(0,444)">
            <text x="20" class="knime-legend-label">
                Naive Bayes
            </text>
            <circle fill="#9467bd" r="5" cx="5" class="knime-legend-symbol"
                    cy="-5"/>
        </g>
        <path style="stroke: black; fill: none; stroke-width: 2;" class="line"
              d="M0,349L410,0"/>
        <g class="knime-legend" transform="translate(97,444)">
            <text x="20" class="knime-legend-label">
                random
            </text>
            <circle fill="black" r="5" cx="5" class="knime-legend-symbol"
                    cy="-5"/>
        </g>
    </g>
    <g transform="translate(70,0)">
        <text class="knime-title" y="30" id="title">
            ROC Curve
        </text>
    </g>
</svg>